<?xml version="1.0" encoding="iso-8859-1"?>
<svg version="1.1" id="Layer_1" xmlns="http://www.w3.org/2000/svg" xmlns:xlink="http://www.w3.org/1999/xlink" x="0px" y="0px"
	 viewBox="0 0 512 512" style="enable-background:new 0 0 512 512;" xml:space="preserve">
<g fill='lightgray'>
  <path d="M501.333,192h-62.827c-3.947-8.32-8.64-18.133-14.72-28.8l43.093-42.987c4.16-4.16,4.16-10.88,0-15.04L406.613,44.8
    c-2.027-2.027-4.693-3.093-7.573-3.2c-2.88,0-5.547,1.173-7.573,3.2L348.48,88.107c-10.987-5.547-23.893-10.027-33.813-13.547
    l-5.333-1.92V10.667C309.333,4.8,304.533,0,298.667,0h-85.333c-5.867,0-10.667,4.8-10.667,10.667v61.867l-5.44,1.92
    C187.2,77.973,174.293,82.56,163.307,88l-43.413-43.2c-4.267-4.053-10.88-4.053-15.04,0l-60.267,60.373
    c-4.16,4.16-4.16,10.88,0,15.04L87.68,163.2c-6.827,11.733-11.733,21.76-14.933,28.8h-62.08C4.8,192,0,196.8,0,202.667V288
    c0,5.867,4.8,10.667,10.667,10.667h59.84c4.16,23.467,10.347,36.48,17.173,48l-43.2,44.16c-4.053,4.16-4.053,10.773,0,14.933
    l60.373,60.8c2.027,2.027,4.693,3.2,7.573,3.2c2.453-0.32,5.547-1.067,7.573-3.093l43.307-43.093
    c11.093,5.653,24.213,10.347,34.24,13.973l5.227,1.92v61.867c0,5.867,4.8,10.667,10.667,10.667h85.333
    c5.867,0,10.667-4.8,10.667-10.667v-62.08l5.333-1.92c9.92-3.52,22.827-8.107,33.813-13.653l43.2,43.307
    c2.027,2.027,4.693,3.093,7.573,3.093c2.88,0,5.547-1.173,7.573-3.093L467.2,406.72c4.16-4.053,4.16-10.773,0.107-14.933
    l-43.093-44.8l0.427-0.533c7.893-11.307,13.227-20.587,16.853-47.787h59.84c5.867,0,10.667-4.8,10.667-10.667v-85.333
    C512,196.8,507.2,192,501.333,192z M490.667,277.333h-58.773c-5.44,0-10.027,4.16-10.667,9.6
    c-3.307,31.787-7.893,38.293-14.293,47.36c-1.813,2.56-3.627,5.227-5.653,8.427c-2.56,4.16-1.92,9.493,1.387,12.907l41.813,43.52
    l-45.333,45.333l-41.173-41.28c-3.52-3.52-8.853-4.16-13.12-1.6c-10.24,6.293-25.813,11.733-37.227,15.787
    c-5.227,1.813-9.813,3.52-13.013,4.8c-3.947,1.707-6.507,5.547-6.507,9.813v58.667h-64v-58.56c0-4.267-2.56-8.213-6.507-9.813
    c-3.2-1.387-7.68-2.987-12.8-4.8c-11.52-4.16-27.413-9.813-37.76-16.107c-4.16-2.56-9.6-1.92-13.12,1.6l-41.387,41.173
    l-45.44-45.76l41.6-42.453c3.413-3.52,4.053-8.853,1.493-13.013c-8.747-14.293-15.68-25.6-19.947-56.213
    c-0.747-5.227-5.227-9.173-10.56-9.173H21.333v-64H79.68c4.267,0,8.213-2.56,9.813-6.507c5.867-13.76,12.8-26.987,20.693-39.787
    c2.56-4.16,1.92-9.6-1.6-13.12L67.2,112.64l45.227-45.227l41.387,41.387c3.52,3.52,8.853,4.16,13.12,1.6
    c10.24-6.187,25.92-11.733,37.333-15.787c5.333-1.92,9.92-3.52,13.227-4.907C221.44,88,224,84.16,224,79.893v-58.56h64v58.56
    c0,4.267,2.56,8.213,6.507,9.813c3.2,1.387,7.787,2.987,13.013,4.8c11.413,4.053,26.987,9.6,37.227,15.787
    c4.267,2.56,9.6,1.92,13.12-1.6l41.173-41.387l45.227,45.227L402.88,153.92c-3.52,3.52-4.16,8.853-1.6,13.12
    c6.72,11.307,12.907,23.04,18.453,35.093l2.453,5.227c1.813,3.733,5.547,6.08,9.6,6.08h58.88V277.333z"/>
  <path d="M256,149.12c-58.773,0-106.56,47.893-106.56,106.88c0,58.987,47.893,106.88,106.56,106.88
    c58.667,0,106.667-48,106.667-106.88S314.773,149.12,256,149.12z M341.333,256.107c0,47.04-38.187,85.333-85.333,85.44
    c-47.893,0.107-86.72-39.253-85.653-87.36c0.96-45.333,37.867-82.453,83.2-83.627c48.213-1.28,87.68,37.44,87.787,85.333
    C341.333,256,341.333,256,341.333,256.107z"/>
</g>
</svg>
